<mxfile modified="2020-02-10T19:16:01.769Z" host="www.draw.io" agent="Mozilla/5.0 (Windows NT 10.0; Win64; x64) AppleWebKit/537.36 (KHTML, like Gecko) Chrome/80.0.3987.87 Safari/537.36 Edg/80.0.361.48" etag="crGOUE6TF_jpDFtEJRPu" version="12.6.6" type="github">
  <diagram id="7gcUSTIZ7YSJ5vT40chW" name="Page-1">
    <mxGraphModel dx="1422" dy="790" grid="1" gridSize="10" guides="1" tooltips="1" connect="1" arrows="1" fold="1" page="1" pageScale="1" pageWidth="1169" pageHeight="827" math="0" shadow="0">
      <root>
        <mxCell id="0"/>
        <mxCell id="1" parent="0"/>
        <mxCell id="w_GcMHHkcKZseeOGqTXZ-8" value="" style="group" parent="1" vertex="1" connectable="0">
          <mxGeometry x="85" y="330" width="1010" height="580" as="geometry"/>
        </mxCell>
        <mxCell id="w_GcMHHkcKZseeOGqTXZ-7" value="containerdemo-rg" style="fontStyle=0;verticalAlign=top;align=center;spacingTop=-2;fillColor=none;rounded=0;whiteSpace=wrap;html=1;strokeColor=#919191;strokeWidth=2;dashed=1;container=1;collapsible=0;" parent="w_GcMHHkcKZseeOGqTXZ-8" vertex="1">
          <mxGeometry x="7" y="99.6875" width="1000" height="398.75" as="geometry"/>
        </mxCell>
        <mxCell id="w_GcMHHkcKZseeOGqTXZ-6" value="containerdemo-rg&lt;br&gt;" style="aspect=fixed;html=1;points=[];align=center;image;fontSize=12;image=img/lib/mscae/ResourceGroup.svg;" parent="w_GcMHHkcKZseeOGqTXZ-7" vertex="1">
          <mxGeometry width="67.85659034653465" height="54.28527227722772" as="geometry"/>
        </mxCell>
        <mxCell id="w_GcMHHkcKZseeOGqTXZ-3" value="Azure Container Registry&lt;br&gt;&lt;font face=&quot;Verdana&quot;&gt;myregistry001.azurecontainer.io&lt;br&gt;&lt;/font&gt;" style="shape=mxgraph.gcp.compute.container_registry;html=1;fillColor=#4387FD;gradientColor=#4683EA;strokeColor=none;verticalLabelPosition=bottom;verticalAlign=top;align=center;" parent="w_GcMHHkcKZseeOGqTXZ-7" vertex="1">
          <mxGeometry x="325" y="70" width="54" height="53.31" as="geometry"/>
        </mxCell>
        <mxCell id="w_GcMHHkcKZseeOGqTXZ-10" style="edgeStyle=orthogonalEdgeStyle;rounded=0;orthogonalLoop=1;jettySize=auto;html=1;" parent="w_GcMHHkcKZseeOGqTXZ-8" source="w_GcMHHkcKZseeOGqTXZ-7" target="w_GcMHHkcKZseeOGqTXZ-7" edge="1">
          <mxGeometry relative="1" as="geometry"/>
        </mxCell>
        <mxCell id="J0yiI7WGNwWhSdCZxDl2-4" value=".Net Core WebApp&lt;br&gt;docker image" style="aspect=fixed;html=1;points=[];align=center;image;fontSize=12;image=img/lib/mscae/Docker.svg;" vertex="1" parent="w_GcMHHkcKZseeOGqTXZ-8">
          <mxGeometry x="175" y="10" width="50" height="41" as="geometry"/>
        </mxCell>
        <mxCell id="J0yiI7WGNwWhSdCZxDl2-7" value="" style="shape=flexArrow;endArrow=classic;html=1;strokeWidth=2;entryX=0.074;entryY=0.419;entryDx=0;entryDy=0;entryPerimeter=0;" edge="1" parent="w_GcMHHkcKZseeOGqTXZ-8" source="J0yiI7WGNwWhSdCZxDl2-4" target="w_GcMHHkcKZseeOGqTXZ-3">
          <mxGeometry width="50" height="50" relative="1" as="geometry">
            <mxPoint x="195" y="220" as="sourcePoint"/>
            <mxPoint x="245" y="170" as="targetPoint"/>
          </mxGeometry>
        </mxCell>
        <mxCell id="w_GcMHHkcKZseeOGqTXZ-4" value="" style="shape=mxgraph.gcp2.doubleRect;strokeColor=#dddddd;shadow=1;strokeWidth=1;" parent="1" vertex="1">
          <mxGeometry x="110" y="70" width="138" height="68" as="geometry"/>
        </mxCell>
        <mxCell id="w_GcMHHkcKZseeOGqTXZ-5" value="&lt;font color=&quot;#000000&quot;&gt;Azure&lt;/font&gt;&lt;br&gt;Cloud Shell" style="dashed=0;connectable=0;html=1;fillColor=#5184F3;strokeColor=none;shape=mxgraph.gcp2.hexIcon;prIcon=placeholder;part=1;labelPosition=right;verticalLabelPosition=middle;align=left;verticalAlign=middle;spacingLeft=5;fontColor=#999999;fontSize=12;" parent="w_GcMHHkcKZseeOGqTXZ-4" vertex="1">
          <mxGeometry y="0.5" width="44" height="39" relative="1" as="geometry">
            <mxPoint x="5" y="-19.5" as="offset"/>
          </mxGeometry>
        </mxCell>
        <mxCell id="J0yiI7WGNwWhSdCZxDl2-1" style="edgeStyle=orthogonalEdgeStyle;rounded=0;orthogonalLoop=1;jettySize=auto;html=1;endArrow=block;endFill=1;strokeWidth=2;" edge="1" parent="1" source="w_GcMHHkcKZseeOGqTXZ-9" target="w_GcMHHkcKZseeOGqTXZ-11">
          <mxGeometry relative="1" as="geometry"/>
        </mxCell>
        <mxCell id="w_GcMHHkcKZseeOGqTXZ-9" value="gitub&lt;br&gt;(Quickstart ARM Templates" style="verticalLabelPosition=bottom;html=1;verticalAlign=top;align=center;strokeColor=none;fillColor=#00BEF2;shape=mxgraph.azure.github_code;pointerEvents=1;" parent="1" vertex="1">
          <mxGeometry x="420" y="58" width="50" height="50" as="geometry"/>
        </mxCell>
        <mxCell id="J0yiI7WGNwWhSdCZxDl2-2" style="edgeStyle=orthogonalEdgeStyle;rounded=0;orthogonalLoop=1;jettySize=auto;html=1;entryX=0.519;entryY=0.593;entryDx=0;entryDy=0;entryPerimeter=0;endArrow=block;endFill=1;strokeWidth=2;" edge="1" parent="1" source="w_GcMHHkcKZseeOGqTXZ-11" target="w_GcMHHkcKZseeOGqTXZ-3">
          <mxGeometry relative="1" as="geometry"/>
        </mxCell>
        <mxCell id="w_GcMHHkcKZseeOGqTXZ-11" value="Azure Container Registry Template" style="pointerEvents=1;shadow=0;dashed=0;html=1;strokeColor=none;fillColor=#434445;aspect=fixed;labelPosition=center;verticalLabelPosition=bottom;verticalAlign=top;align=center;outlineConnect=0;shape=mxgraph.vvd.template;" parent="1" vertex="1">
          <mxGeometry x="417.45" y="210" width="55.09" height="67.19" as="geometry"/>
        </mxCell>
        <mxCell id="J0yiI7WGNwWhSdCZxDl2-3" value="Azure Cloud Shell&lt;br&gt;clouddrive" style="shadow=0;dashed=0;html=1;strokeColor=none;fillColor=#4495D1;labelPosition=center;verticalLabelPosition=bottom;verticalAlign=top;align=center;outlineConnect=0;shape=mxgraph.veeam.2d.hard_drive;" vertex="1" parent="1">
          <mxGeometry x="220" y="180" width="40" height="48" as="geometry"/>
        </mxCell>
      </root>
    </mxGraphModel>
  </diagram>
</mxfile>
